# xmcd
#
# Track frame offsets: 
#        150
#        1031
#        13977
#        39705
#        59341
#        80047
#        99538
#        120914
#        143433
#        166086
#        186510
#        206891
#        227474
#        246300
#        263851
#
# Disc length: 3888 seconds
#
# Revision: 0
# Processed by: cddbd v1.5.2PL0 Copyright (c) Steve Scherf et al.
# Submitted via: ExactAudioCopy v1.0b6
#
DISCID=c50f2e0f
DTITLE=Nate Dogg - G-Funk Classics Vols. 1 and 2 [CD 2)
DYEAR=1998
DGENRE=G-Funk
TTITLE0=Dedication
TTITLE1=Who's Playin' Games
TTITLE2=I Don't Wanna Hurt No More (feat. Butch Cassidy)
TTITLE3=Just Another Day (feat. Butch Cassidy and Val Young)
TTITLE4=She's Strange (feat. Barbara Wilson)
TTITLE5=Almost in Love (feat. Isaac Reese)
TTITLE6=No Matter Where i Go (feat. Barbara Wilson)
TTITLE7=Stone Cold
TTITLE8=Friends (feat. Snoop Dogg and Warren G)
TTITLE9=Puppy Love (feat. Daz Dillinger, Kurupt and Snoop Dogg)
TTITLE10=It's Goin' Down Tonight (feat. Butch Cassidy and Isaac Reese)
TTITLE11=Nobody Does it Better (feat. Warren G)
TTITLE12=Sexy Girl (feat. Big Syke)
TTITLE13=Dogg Pound Gangstaville (feat. Kurupt and Snoop Dogg)
TTITLE14=Never Too Late (feat. Barbara Wilson)
EXTD=
EXTT0=
EXTT1=
EXTT2=
EXTT3=
EXTT4=
EXTT5=
EXTT6=
EXTT7=
EXTT8=
EXTT9=
EXTT10=
EXTT11=
EXTT12=
EXTT13=
EXTT14=
PLAYORDER=
